<svg width="44" height="44" viewBox="0 0 44 44" fill="none" xmlns="http://www.w3.org/2000/svg">
<rect width="44" height="44" rx="7" fill="#FFE9A2"/>
<path d="M33 11H15C14.4696 11 13.9609 11.2107 13.5858 11.5858C13.2107 11.9609 13 12.4696 13 13V15H11C10.4696 15 9.96086 15.2107 9.58579 15.5858C9.21071 15.9609 9 16.4696 9 17V31C9 31.5304 9.21071 32.0391 9.58579 32.4142C9.96086 32.7893 10.4696 33 11 33H29C29.5304 33 30.0391 32.7893 30.4142 32.4142C30.7893 32.0391 31 31.5304 31 31V29H33C33.5304 29 34.0391 28.7893 34.4142 28.4142C34.7893 28.0391 35 27.5304 35 27V13C35 12.4696 34.7893 11.9609 34.4142 11.5858C34.0391 11.2107 33.5304 11 33 11ZM29 17V19H11V17H29ZM29 31H11V21H29V31ZM33 27H31V17C31 16.4696 30.7893 15.9609 30.4142 15.5858C30.0391 15.2107 29.5304 15 29 15H15V13H33V27Z" fill="black"/>
</svg>
