<svg width="44" height="44" viewBox="0 0 44 44" fill="none" xmlns="http://www.w3.org/2000/svg">
<rect width="44" height="44" rx="7" fill="#FFE9A2"/>
<path d="M33 20.0001C33 22.8213 32.0125 25.4001 30.2213 27.2638C28.5488 29.0001 26.2813 30.0001 24 30.0001C21.765 30.0001 20.2725 29.2676 19.3213 28.5001L17.9738 34.2288C17.9222 34.4483 17.7979 34.644 17.6211 34.784C17.4444 34.924 17.2255 35.0001 17 35.0001C16.9226 35 16.8454 34.9912 16.77 34.9738C16.6417 34.9444 16.5204 34.8899 16.4132 34.8134C16.306 34.737 16.2149 34.6401 16.1452 34.5284C16.0755 34.4167 16.0286 34.2923 16.0071 34.1623C15.9856 34.0324 15.99 33.8995 16.02 33.7713L20.02 16.7713C20.0807 16.5131 20.2414 16.2895 20.467 16.1498C20.6925 16.0101 20.9642 15.9657 21.2225 16.0263C21.4808 16.087 21.7043 16.2478 21.844 16.4733C21.9838 16.6988 22.0282 16.9706 21.9675 17.2288L19.855 26.2038C20.25 26.7501 21.4125 28.0001 24 28.0001C27.4413 28.0001 31 25.0076 31 20.0001C30.9995 18.6199 30.6815 17.2584 30.0707 16.0207C29.4599 14.783 28.5727 13.7024 27.4776 12.8624C26.3825 12.0224 25.1088 11.4455 23.7552 11.1764C22.4015 10.9072 21.004 10.953 19.6709 11.3102C18.3377 11.6674 17.1046 12.3264 16.0668 13.2362C15.029 14.1461 14.2144 15.2825 13.6859 16.5574C13.1574 17.8324 12.9293 19.2119 13.0191 20.5891C13.1089 21.9664 13.5142 23.3045 14.2038 24.5001C14.3281 24.7291 14.3582 24.9977 14.2874 25.2486C14.2167 25.4995 14.0508 25.7128 13.8251 25.8432C13.5994 25.9736 13.3317 26.0107 13.0791 25.9466C12.8264 25.8825 12.6088 25.7223 12.4725 25.5001C11.6293 24.0388 11.1335 22.4032 11.0234 20.7198C10.9134 19.0363 11.192 17.35 11.8378 15.7915C12.4836 14.2329 13.4793 12.8438 14.7477 11.7315C16.0162 10.6192 17.5236 9.81359 19.1531 9.37697C20.7827 8.94035 22.4909 8.88441 24.1456 9.21348C25.8003 9.54255 27.3571 10.2478 28.6956 11.2747C30.0341 12.3016 31.1185 13.6227 31.8649 15.1356C32.6113 16.6486 32.9997 18.313 33 20.0001Z" fill="black"/>
</svg>
