<svg width="44" height="44" viewBox="0 0 44 44" fill="none" xmlns="http://www.w3.org/2000/svg">
<rect width="44" height="44" rx="7" fill="#FFE9A2"/>
<path d="M36.9237 14.6175C36.8481 14.4348 36.72 14.2786 36.5555 14.1687C36.3911 14.0587 36.1978 14.0001 36 14H32.1963C31.6644 13.0952 30.9076 12.3435 29.9992 11.8178C29.0909 11.2921 28.0619 11.0104 27.0125 11C26.2306 10.9898 25.4546 11.136 24.7301 11.4301C24.0056 11.7242 23.3472 12.1602 22.7937 12.7125C22.2241 13.2715 21.7719 13.9388 21.4639 14.6751C21.1559 15.4114 20.9981 16.2019 21 17V17.7613C15.9675 16.4338 11.8512 12.34 11.8075 12.2963C11.6733 12.1609 11.5033 12.0667 11.3174 12.0248C11.1315 11.9828 10.9375 11.9949 10.7582 12.0595C10.5789 12.1241 10.4218 12.2386 10.3054 12.3895C10.1891 12.5404 10.1182 12.7214 10.1012 12.9113C9.5625 18.885 11.2975 22.8825 12.8512 25.1838C13.6088 26.3214 14.5305 27.3407 15.5862 28.2088C13.6825 30.4 10.685 31.5513 10.6525 31.5638C10.5114 31.6166 10.3841 31.7007 10.28 31.8097C10.1759 31.9186 10.0979 32.0497 10.0516 32.1931C10.0053 32.3365 9.99203 32.4885 10.0127 32.6378C10.0335 32.787 10.0877 32.9296 10.1712 33.055C10.265 33.195 10.64 33.6863 11.5562 34.145C12.6887 34.7125 14.185 35 16 35C24.8337 35 32.215 28.1975 32.9688 19.445L36.7075 15.7075C36.8473 15.5676 36.9425 15.3893 36.981 15.1953C37.0195 15.0013 36.9995 14.8002 36.9237 14.6175ZM31.2987 18.2938C31.1273 18.4656 31.0242 18.694 31.0088 18.9363C30.5 26.8225 23.91 33 16 33C14.68 33 13.75 32.825 13.0975 32.615C14.5362 31.8338 16.5425 30.49 17.8325 28.555C17.9082 28.4412 17.9598 28.3131 17.9841 28.1786C18.0083 28.0442 18.0048 27.9061 17.9736 27.773C17.9425 27.64 17.8844 27.5147 17.8029 27.405C17.7214 27.2952 17.6184 27.2034 17.5 27.135C17.4412 27.1013 12.0112 23.8425 12 15.135C14 16.76 17.6562 19.2813 21.8337 19.9838C21.9769 20.0079 22.1236 20.0006 22.2637 19.9623C22.4037 19.924 22.5338 19.8557 22.6448 19.7621C22.7558 19.6684 22.845 19.5518 22.9064 19.4202C22.9677 19.2886 22.9997 19.1452 23 19V17C22.9989 16.4666 23.1045 15.9383 23.3105 15.4463C23.5166 14.9543 23.819 14.5084 24.2 14.135C24.5652 13.7691 25 13.4802 25.4788 13.2852C25.9576 13.0903 26.4706 12.9933 26.9875 13C28.57 13.02 30.0487 13.985 30.6675 15.4013C30.7455 15.5793 30.8737 15.7308 31.0364 15.8371C31.1992 15.9435 31.3894 16.0001 31.5837 16H33.5837L31.2987 18.2938Z" fill="black"/>
</svg>
